<svg width="24" height="24" viewBox="0 0 24 24" fill="none" xmlns="http://www.w3.org/2000/svg">
<path d="M20.2032 15.0311C20.1563 14.8623 20.2594 14.6279 20.3579 14.4592C20.3879 14.409 20.4208 14.3604 20.4563 14.3139C21.2983 13.0627 21.7487 11.5892 21.75 10.0811C21.7641 5.75918 18.1172 2.25293 13.6079 2.25293C9.67504 2.25293 6.39379 4.92949 5.62504 8.48262C5.51003 9.00925 5.45189 9.5467 5.4516 10.0857C5.4516 14.4123 8.95785 18.0123 13.4672 18.0123C14.1844 18.0123 15.15 17.7967 15.6797 17.6514C16.2094 17.5061 16.7344 17.3139 16.8704 17.2623C17.0097 17.2098 17.1574 17.1828 17.3063 17.1826C17.4688 17.182 17.6297 17.2139 17.7797 17.2764L20.4375 18.2186C20.4958 18.2432 20.5574 18.259 20.6204 18.2654C20.7198 18.2654 20.8152 18.2259 20.8855 18.1556C20.9558 18.0853 20.9954 17.9899 20.9954 17.8904C20.9921 17.8475 20.9842 17.8051 20.9719 17.7639L20.2032 15.0311Z" stroke="white" stroke-width="1.5" stroke-miterlimit="10" stroke-linecap="round"/>
<path d="M3.11528 10.8799C2.50048 11.9844 2.20308 13.2374 2.25594 14.5003C2.3088 15.7633 2.70987 16.987 3.41481 18.0363C3.52309 18.1999 3.58403 18.3264 3.56528 18.4113C3.54653 18.4961 3.00606 21.3114 3.00606 21.3114C2.99306 21.3773 2.99799 21.4455 3.02034 21.5088C3.04268 21.5721 3.08162 21.6283 3.13309 21.6714C3.20177 21.7262 3.28716 21.7556 3.37497 21.7549C3.42189 21.755 3.46833 21.7454 3.51137 21.7268L6.14622 20.6955C6.32756 20.624 6.52986 20.6274 6.70872 20.7049C7.59653 21.0508 8.57809 21.2674 9.56012 21.2674C10.8779 21.2688 12.1726 20.9212 13.3125 20.26" stroke="white" stroke-width="1.5" stroke-miterlimit="10" stroke-linecap="round"/>
</svg>
