<svg width="24" height="24" viewBox="0 0 24 24" fill="none" xmlns="http://www.w3.org/2000/svg">
<path d="M19.5 10.3745V19.5034C19.5 20.1002 19.2629 20.6725 18.841 21.0944C18.419 21.5164 17.8467 21.7534 17.25 21.7534H6.74999C6.15325 21.7534 5.58095 21.5164 5.15899 21.0944C4.73704 20.6725 4.49998 20.1002 4.49998 19.5034V4.50342C4.49998 3.90668 4.73704 3.33438 5.15899 2.91243C5.58095 2.49047 6.15325 2.25342 6.74999 2.25342H11.3789C11.7766 2.25348 12.158 2.41146 12.4392 2.69264L19.0608 9.3142C19.3419 9.59544 19.4999 9.97683 19.5 10.3745Z" stroke="white" stroke-width="1.5" stroke-linejoin="round"/>
<path d="M8.24985 17.2524H15.7498M11.9998 2.62744V8.25244C11.9998 8.65027 12.1579 9.0318 12.4392 9.3131C12.7205 9.59441 13.102 9.75244 13.4998 9.75244H19.1249L11.9998 2.62744ZM8.24985 13.5024H15.7498H8.24985Z" stroke="white" stroke-width="1.5" stroke-linecap="round" stroke-linejoin="round"/>
</svg>
