<svg width="24" height="24" viewBox="0 0 24 24" fill="none" xmlns="http://www.w3.org/2000/svg">
<path d="M12.0001 21.0034C16.9707 21.0034 21.0001 16.974 21.0001 12.0034C21.0001 7.03286 16.9707 3.00342 12.0001 3.00342C7.02956 3.00342 3.00012 7.03286 3.00012 12.0034C3.00012 16.974 7.02956 21.0034 12.0001 21.0034Z" stroke="white" stroke-width="1.5" stroke-miterlimit="10" stroke-linecap="round"/>
<path d="M4.76403 17.2504H8.06262M12.0001 8.21051L8.4334 11.2025L9.37512 15.0004H14.6251L15.5668 11.2025L12.0001 8.21051ZM15.5668 11.2025L18.0451 10.1525L19.2536 6.71848L15.5668 11.2025ZM20.9532 12.6552L18.0451 10.1525L20.9532 12.6552ZM8.4334 11.2025L5.95512 10.1525L4.74668 6.71848L8.4334 11.2025ZM3.047 12.6552L5.95512 10.1525L3.047 12.6552ZM12.0001 8.21051V5.51191L15.0001 3.51316L12.0001 8.21051ZM9.00012 3.5127L12.0001 5.51191L9.00012 3.5127ZM14.6251 15.0004L15.9376 17.2504L14.6251 20.5785V15.0004ZM19.2536 17.2504H16.0314H19.2536ZM9.37512 15.0004L8.06262 17.2504L9.39247 20.6019L9.37512 15.0004Z" stroke="white" stroke-width="1.5" stroke-linecap="round" stroke-linejoin="round"/>
</svg>
