<svg width="190" height="190" viewBox="0 0 190 190" fill="none" xmlns="http://www.w3.org/2000/svg">
<path d="M20.8333 95.0001C20.8333 92.2386 18.5948 90.0001 15.8333 90.0001C13.0719 90.0001 10.8333 92.2386 10.8333 95.0001H20.8333ZM169.167 95.0001C169.167 97.7615 171.405 100 174.167 100C176.928 100 179.167 97.7615 179.167 95.0001H169.167ZM34.8366 43.5417L38.4366 47.0116L38.5389 46.9055L38.6348 46.7935L34.8366 43.5417ZM155.163 146.458L158.962 149.71L159.023 149.638L159.082 149.564L155.163 146.458ZM30.8296 7.93906C30.8419 5.17766 28.6134 2.92912 25.852 2.9168C23.0906 2.90448 20.842 5.13304 20.8297 7.89444L30.8296 7.93906ZM25.7595 23.637L20.7596 23.6147V23.6147L25.7595 23.637ZM54.8929 52.7703L54.9152 57.7703L54.8929 52.7703ZM70.6354 57.7001C73.3968 57.6878 75.6254 55.4393 75.6131 52.6779C75.6007 49.9165 73.3522 47.6879 70.5908 47.7002L70.6354 57.7001ZM28.9939 46.7295L25.0397 49.7897L25.0397 49.7897L28.9939 46.7295ZM31.8003 49.536L28.7402 53.4902L28.7402 53.4902L31.8003 49.536ZM158.534 181.424C158.521 184.186 160.75 186.434 163.511 186.447C166.273 186.459 168.521 184.23 168.533 181.469L158.534 181.424ZM163.604 165.727L168.604 165.749L163.604 165.727ZM134.47 136.593L134.448 131.593L134.47 136.593ZM118.728 131.663C115.966 131.676 113.738 133.924 113.75 136.686C113.762 139.447 116.011 141.676 118.772 141.663L118.728 131.663ZM160.369 142.634L164.323 139.574L164.323 139.574L160.369 142.634ZM157.563 139.828L160.623 135.873V135.873L157.563 139.828ZM30.317 48.2308L26.7844 51.7692L30.317 48.2308ZM95 169.167C54.0389 169.167 20.8333 135.961 20.8333 95.0001H10.8333C10.8333 141.484 48.516 179.167 95 179.167V169.167ZM95 20.8334C135.961 20.8334 169.167 54.039 169.167 95.0001H179.167C179.167 48.5161 141.484 10.8334 95 10.8334V20.8334ZM38.6348 46.7935C52.2452 30.8956 72.4449 20.8334 95 20.8334V10.8334C69.4012 10.8334 46.4676 22.2677 31.0384 40.29L38.6348 46.7935ZM151.365 143.207C137.755 159.105 117.555 169.167 95 169.167V179.167C120.599 179.167 143.532 167.732 158.962 149.71L151.365 143.207ZM20.8297 7.89444L20.7596 23.6147L30.7595 23.6593L30.8296 7.93906L20.8297 7.89444ZM54.9152 57.7703L70.6354 57.7001L70.5908 47.7002L54.8706 47.7704L54.9152 57.7703ZM20.7596 23.6147C20.7321 29.7654 20.7021 34.8009 21.1409 38.8194C21.5908 42.9384 22.5846 46.6173 25.0397 49.7897L32.9481 43.6694C32.0849 42.5541 31.4336 40.955 31.0818 37.7338C30.7191 34.412 30.731 30.0451 30.7595 23.6593L20.7596 23.6147ZM54.8706 47.7704C48.4847 47.7988 44.1178 47.8108 40.7961 47.448C37.5749 47.0962 35.9758 46.4449 34.8604 45.5818L28.7402 53.4902C31.9126 55.9453 35.5914 56.9391 39.7105 57.3889C43.7289 57.8277 48.7645 57.7977 54.9152 57.7703L54.8706 47.7704ZM168.533 181.469L168.604 165.749L158.604 165.704L158.534 181.424L168.533 181.469ZM134.448 131.593L118.728 131.663L118.772 141.663L134.493 141.593L134.448 131.593ZM168.604 165.749C168.631 159.598 168.661 154.563 168.222 150.544C167.772 146.425 166.779 142.746 164.323 139.574L156.415 145.694C157.278 146.809 157.93 148.409 158.281 151.63C158.644 154.952 158.632 159.318 158.604 165.704L168.604 165.749ZM134.493 141.593C140.878 141.565 145.245 141.553 148.567 141.916C151.788 142.267 153.387 142.919 154.503 143.782L160.623 135.873C157.451 133.418 153.772 132.424 149.653 131.975C145.634 131.536 140.599 131.566 134.448 131.593L134.493 141.593ZM25.0397 49.7897C25.5791 50.4867 26.1619 51.1478 26.7844 51.7692L33.8497 44.6924C33.528 44.3713 33.2269 44.0297 32.9481 43.6694L25.0397 49.7897ZM26.7844 51.7692C27.3989 52.3828 28.052 52.9576 28.7402 53.4902L34.8604 45.5818C34.5048 45.3065 34.1672 45.0095 33.8497 44.6924L26.7844 51.7692ZM31.2366 40.0719L26.717 44.7609L33.917 51.7007L38.4366 47.0116L31.2366 40.0719ZM164.323 139.574C163.856 138.97 163.355 138.392 162.825 137.844L155.641 144.8C155.915 145.083 156.173 145.382 156.415 145.694L164.323 139.574ZM162.825 137.844C162.14 137.136 161.404 136.478 160.623 135.873L154.503 143.782C154.906 144.094 155.287 144.434 155.641 144.8L162.825 137.844ZM159.082 149.564L163.152 144.427L155.314 138.217L151.244 143.353L159.082 149.564Z" fill="#E43371"/>
</svg>
