<svg width="216" height="216" viewBox="0 0 216 216" fill="none" xmlns="http://www.w3.org/2000/svg">
<path d="M81 54.0001C79.5678 54.0001 78.1943 54.569 77.1816 55.5817C76.1689 56.5944 75.6 57.9679 75.6 59.4001C75.6 60.8323 76.1689 62.2058 77.1816 63.2185C78.1943 64.2312 79.5678 64.8001 81 64.8001H135C136.432 64.8001 137.806 64.2312 138.818 63.2185C139.831 62.2058 140.4 60.8323 140.4 59.4001C140.4 57.9679 139.831 56.5944 138.818 55.5817C137.806 54.569 136.432 54.0001 135 54.0001H81ZM75.6 135C75.6 133.568 76.1689 132.194 77.1816 131.182C78.1943 130.169 79.5678 129.6 81 129.6H135C136.432 129.6 137.806 130.169 138.818 131.182C139.831 132.194 140.4 133.568 140.4 135C140.4 136.432 139.831 137.806 138.818 138.819C137.806 139.831 136.432 140.4 135 140.4H81C79.5678 140.4 78.1943 139.831 77.1816 138.819C76.1689 137.806 75.6 136.432 75.6 135ZM81 151.2C79.5678 151.2 78.1943 151.769 77.1816 152.782C76.1689 153.794 75.6 155.168 75.6 156.6C75.6 158.032 76.1689 159.406 77.1816 160.419C78.1943 161.431 79.5678 162 81 162H135C136.432 162 137.806 161.431 138.818 160.419C139.831 159.406 140.4 158.032 140.4 156.6C140.4 155.168 139.831 153.794 138.818 152.782C137.806 151.769 136.432 151.2 135 151.2H81ZM54 48.6001C54 41.4393 56.8446 34.5717 61.9081 29.5082C66.9716 24.4447 73.8392 21.6001 81 21.6001H135C142.161 21.6001 149.028 24.4447 154.092 29.5082C159.155 34.5717 162 41.4393 162 48.6001V54.0001H172.8C178.529 54.0001 184.023 56.2758 188.074 60.3266C192.124 64.3774 194.4 69.8714 194.4 75.6001V151.2C194.4 156.929 192.124 162.423 188.074 166.474C184.023 170.524 178.529 172.8 172.8 172.8H161.46C160.215 178.899 156.901 184.38 152.08 188.316C147.258 192.252 141.224 194.401 135 194.4H81C74.7757 194.401 68.7421 192.252 63.9203 188.316C59.0986 184.38 55.7849 178.899 54.54 172.8H43.2C37.4713 172.8 31.9773 170.524 27.9265 166.474C23.8757 162.423 21.6 156.929 21.6 151.2V75.6001C21.6 69.8714 23.8757 64.3774 27.9265 60.3266C31.9773 56.2758 37.4713 54.0001 43.2 54.0001H54V48.6001ZM162 162H172.8C175.664 162 178.411 160.862 180.437 158.837C182.462 156.811 183.6 154.064 183.6 151.2V75.6001C183.6 72.7358 182.462 69.9888 180.437 67.9634C178.411 65.938 175.664 64.8001 172.8 64.8001H162V162ZM54 64.8001H43.2C40.3357 64.8001 37.5886 65.938 35.5633 67.9634C33.5379 69.9888 32.4 72.7358 32.4 75.6001V151.2C32.4 154.064 33.5379 156.811 35.5633 158.837C37.5886 160.862 40.3357 162 43.2 162H54V64.8001ZM81 32.4001C76.7035 32.4001 72.583 34.1069 69.5449 37.145C66.5068 40.1831 64.8 44.3036 64.8 48.6001V167.4C64.8 171.697 66.5068 175.817 69.5449 178.855C72.583 181.893 76.7035 183.6 81 183.6H135C139.297 183.6 143.417 181.893 146.455 178.855C149.493 175.817 151.2 171.697 151.2 167.4V48.6001C151.2 44.3036 149.493 40.1831 146.455 37.145C143.417 34.1069 139.297 32.4001 135 32.4001H81Z" fill="#E43371"/>
</svg>
