<svg width="26" height="26" viewBox="0 0 26 26" fill="none" xmlns="http://www.w3.org/2000/svg">
<path d="M6.5 8.12484C6.5 7.83752 6.61414 7.56197 6.8173 7.35881C7.02047 7.15564 7.29602 7.0415 7.58333 7.0415C7.87065 7.0415 8.1462 7.15564 8.34937 7.35881C8.55253 7.56197 8.66667 7.83752 8.66667 8.12484C8.66667 8.41216 8.55253 8.68771 8.34937 8.89087C8.1462 9.09403 7.87065 9.20817 7.58333 9.20817C7.29602 9.20817 7.02047 9.09403 6.8173 8.89087C6.61414 8.68771 6.5 8.41216 6.5 8.12484ZM9.75 8.12484C9.75 7.83752 9.86414 7.56197 10.0673 7.35881C10.2705 7.15564 10.546 7.0415 10.8333 7.0415C11.1207 7.0415 11.3962 7.15564 11.5994 7.35881C11.8025 7.56197 11.9167 7.83752 11.9167 8.12484C11.9167 8.41216 11.8025 8.68771 11.5994 8.89087C11.3962 9.09403 11.1207 9.20817 10.8333 9.20817C10.546 9.20817 10.2705 9.09403 10.0673 8.89087C9.86414 8.68771 9.75 8.41216 9.75 8.12484ZM7.58333 14.6248C7.29602 14.6248 7.02047 14.739 6.8173 14.9421C6.61414 15.1453 6.5 15.4209 6.5 15.7082C6.5 15.9955 6.61414 16.271 6.8173 16.4742C7.02047 16.6774 7.29602 16.7915 7.58333 16.7915C7.87065 16.7915 8.1462 16.6774 8.34937 16.4742C8.55253 16.271 8.66667 15.9955 8.66667 15.7082C8.66667 15.4209 8.55253 15.1453 8.34937 14.9421C8.1462 14.739 7.87065 14.6248 7.58333 14.6248ZM10.8333 14.6248C10.546 14.6248 10.2705 14.739 10.0673 14.9421C9.86414 15.1453 9.75 15.4209 9.75 15.7082C9.75 15.9955 9.86414 16.271 10.0673 16.4742C10.2705 16.6774 10.546 16.7915 10.8333 16.7915C11.1207 16.7915 11.3962 16.6774 11.5994 16.4742C11.8025 16.271 11.9167 15.9955 11.9167 15.7082C11.9167 15.4209 11.8025 15.1453 11.5994 14.9421C11.3962 14.739 11.1207 14.6248 10.8333 14.6248Z" fill="#7B809A"/>
<path fill-rule="evenodd" clip-rule="evenodd" d="M6.44261 3.521C5.65248 3.521 4.89472 3.83487 4.33602 4.39357C3.77732 4.95228 3.46344 5.71004 3.46344 6.50016V9.75016C3.46344 10.6038 3.82311 11.3741 4.39836 11.9168C4.10277 12.195 3.86732 12.5307 3.70652 12.9033C3.54572 13.276 3.46299 13.6776 3.46344 14.0835V17.3335C3.46344 18.1236 3.77732 18.8814 4.33602 19.4401C4.89472 19.9988 5.65248 20.3127 6.44261 20.3127H12.1875V21.9377H5.41669C5.2012 21.9377 4.99454 22.0233 4.84217 22.1756C4.68979 22.328 4.60419 22.5347 4.60419 22.7502C4.60419 22.9657 4.68979 23.1723 4.84217 23.3247C4.99454 23.4771 5.2012 23.5627 5.41669 23.5627H20.5834C20.7988 23.5627 21.0055 23.4771 21.1579 23.3247C21.3103 23.1723 21.3959 22.9657 21.3959 22.7502C21.3959 22.5347 21.3103 22.328 21.1579 22.1756C21.0055 22.0233 20.7988 21.9377 20.5834 21.9377H13.8125V20.3127H19.4426C19.8338 20.3127 20.2212 20.2356 20.5827 20.0859C20.9441 19.9362 21.2726 19.7167 21.5492 19.4401C21.8258 19.1634 22.0453 18.835 22.195 18.4736C22.3447 18.1121 22.4218 17.7247 22.4218 17.3335V14.0835C22.4218 13.2298 22.0632 12.4596 21.4879 11.9168C21.7833 11.6386 22.0185 11.3028 22.1791 10.9301C22.3397 10.5575 22.4223 10.1559 22.4218 9.75016V6.50016C22.4218 6.10893 22.3447 5.72153 22.195 5.36008C22.0453 4.99864 21.8258 4.67021 21.5492 4.39357C21.2726 4.11693 20.9441 3.89749 20.5827 3.74777C20.2212 3.59805 19.8338 3.521 19.4426 3.521H6.44261ZM6.44261 11.1043H19.4426C20.1901 11.1043 20.7968 10.4977 20.7968 9.75016V6.50016C20.7968 5.75266 20.1901 5.146 19.4426 5.146H6.44261C5.69511 5.146 5.08844 5.75266 5.08844 6.50016V9.75016C5.08844 10.4977 5.69511 11.1043 6.44261 11.1043ZM6.44261 12.7293C5.69511 12.7293 5.08844 13.336 5.08844 14.0835V17.3335C5.08844 18.081 5.69511 18.6877 6.44261 18.6877H19.4426C20.1901 18.6877 20.7968 18.081 20.7968 17.3335V14.0835C20.7968 13.336 20.1901 12.7293 19.4426 12.7293H6.44261Z" fill="#7B809A"/>
</svg>
