<svg width="192" height="192" viewBox="0 0 192 192" fill="none" xmlns="http://www.w3.org/2000/svg">
<path d="M57.8942 30C75.5423 19.8108 84.3663 14.7163 94.0158 14.2372C95.3373 14.1716 96.6613 14.1716 97.9828 14.2372C107.632 14.7163 116.456 19.8108 134.104 30C151.752 40.1891 160.577 45.2837 165.816 53.4008C166.534 54.5125 167.196 55.6591 167.8 56.8363C172.21 65.4326 172.21 75.6217 172.21 96C172.21 116.378 172.21 126.567 167.8 135.164C167.196 136.341 166.534 137.487 165.816 138.599C160.577 146.716 151.752 151.811 134.104 162C116.456 172.189 107.632 177.284 97.9828 177.763C96.6613 177.828 95.3373 177.828 94.0158 177.763C84.3663 177.284 75.5423 172.189 57.8942 162C40.2461 151.811 31.4221 146.716 26.1824 138.599C25.4648 137.487 24.8029 136.341 24.1989 135.164C19.7891 126.567 19.7891 116.378 19.7891 96C19.7891 75.6217 19.7891 65.4326 24.1989 56.8363C24.8029 55.6591 25.4648 54.5125 26.1824 53.4008C31.4221 45.2837 40.2461 40.1891 57.8942 30Z" stroke="#DF0753" stroke-width="10"/>
<path d="M63.9993 96C63.9993 88.5602 63.9993 84.8403 64.8171 81.7883C67.0363 73.5061 73.5054 67.037 81.7876 64.8177C84.8396 64 88.5595 64 95.9993 64C103.439 64 107.159 64 110.211 64.8177C118.493 67.037 124.962 73.5061 127.182 81.7883C127.999 84.8403 127.999 88.5602 127.999 96C127.999 103.44 127.999 107.16 127.182 110.212C124.962 118.494 118.493 124.963 110.211 127.182C107.159 128 103.439 128 95.9993 128C88.5595 128 84.8396 128 81.7876 127.182C73.5054 124.963 67.0363 118.494 64.8171 110.212C63.9993 107.16 63.9993 103.44 63.9993 96Z" stroke="#DF0753" stroke-width="10"/>
</svg>
