<svg width="24" height="24" viewBox="0 0 24 24" fill="none" xmlns="http://www.w3.org/2000/svg">
<g clip-path="url(#clip0_203_286)">
<path d="M6.28572 12V8.24285C6.29688 7.50433 6.45366 6.77526 6.74706 6.09743C7.04047 5.41959 7.46475 4.80632 7.99558 4.29274C8.52641 3.77916 9.15336 3.37537 9.84052 3.10451C10.5277 2.83365 11.2615 2.70104 12 2.71428C12.7385 2.70104 13.4723 2.83365 14.1595 3.10451C14.8467 3.37537 15.4736 3.77916 16.0044 4.29274C16.5353 4.80632 16.9595 5.41959 17.253 6.09743C17.5464 6.77526 17.7031 7.50433 17.7143 8.24285V12M14.8572 19.5C15.6149 19.5 16.3416 19.199 16.8775 18.6632C17.4133 18.1273 17.7143 17.4006 17.7143 16.6429V13.4286M14.8572 19.5C14.8572 19.9736 14.669 20.4278 14.3341 20.7627C13.9992 21.0976 13.545 21.2857 13.0714 21.2857H10.9286C10.455 21.2857 10.0008 21.0976 9.66589 20.7627C9.331 20.4278 9.14287 19.9736 9.14287 19.5C9.14287 19.0264 9.331 18.5722 9.66589 18.2373C10.0008 17.9024 10.455 17.7143 10.9286 17.7143H13.0714C13.545 17.7143 13.9992 17.9024 14.3341 18.2373C14.669 18.5722 14.8572 19.0264 14.8572 19.5ZM4.14287 9.85714H5.57144C5.76088 9.85714 5.94256 9.93239 6.07651 10.0663C6.21047 10.2003 6.28572 10.382 6.28572 10.5714V14.8571C6.28572 15.0466 6.21047 15.2283 6.07651 15.3622C5.94256 15.4962 5.76088 15.5714 5.57144 15.5714H4.14287C3.76399 15.5714 3.40062 15.4209 3.13271 15.153C2.8648 14.8851 2.71429 14.5217 2.71429 14.1429V11.2857C2.71429 10.9068 2.8648 10.5435 3.13271 10.2756C3.40062 10.0076 3.76399 9.85714 4.14287 9.85714ZM19.8572 15.5714H18.4286C18.2391 15.5714 18.0575 15.4962 17.9235 15.3622C17.7895 15.2283 17.7143 15.0466 17.7143 14.8571V10.5714C17.7143 10.382 17.7895 10.2003 17.9235 10.0663C18.0575 9.93239 18.2391 9.85714 18.4286 9.85714H19.8572C20.236 9.85714 20.5994 10.0076 20.8673 10.2756C21.1352 10.5435 21.2857 10.9068 21.2857 11.2857V14.1429C21.2857 14.5217 21.1352 14.8851 20.8673 15.153C20.5994 15.4209 20.236 15.5714 19.8572 15.5714Z" stroke="white" stroke-width="1.5" stroke-linecap="round" stroke-linejoin="round"/>
</g>
<defs>
<clipPath id="clip0_203_286">
<rect width="20" height="20" fill="white" transform="translate(2 2)"/>
</clipPath>
</defs>
</svg>
