<svg width="20" height="20" viewBox="0 0 20 20" fill="none" xmlns="http://www.w3.org/2000/svg">
<path d="M13.75 5.62256H18.125V9.99756" stroke="#53C22B" stroke-width="1.5" stroke-linecap="round" stroke-linejoin="round"/>
<path d="M1.87506 14.375L6.61608 9.63398C6.73215 9.51788 6.86996 9.42578 7.02164 9.36294C7.17332 9.30011 7.33588 9.26777 7.50006 9.26777C7.66424 9.26777 7.82681 9.30011 7.97848 9.36294C8.13016 9.42578 8.26797 9.51788 8.38404 9.63398L10.3661 11.616C10.4822 11.7321 10.62 11.8242 10.7716 11.8871C10.9233 11.9499 11.0859 11.9822 11.2501 11.9822C11.4142 11.9822 11.5768 11.9499 11.7285 11.8871C11.8802 11.8242 12.018 11.7321 12.134 11.616L17.5001 6.25" stroke="#53C22B" stroke-width="1.5" stroke-linecap="round" stroke-linejoin="round"/>
</svg>
